<?xml version="1.0" encoding="UTF-8"?>
<svg version="1.1" xmlns="http://www.w3.org/2000/svg" width="512" height="512">
<path d="M0 0 C5.4521357 2.53134872 6.4759981 4.71399714 10 10 C10 17.26 10 24.52 10 32 C25.84 32 41.68 32 58 32 C58 24.74 58 17.48 58 10 C63.17241379 2.24137931 63.17241379 2.24137931 68 0 C73.5997712 -0.75381535 78.33499991 -0.77303575 83.5 1.625 C86 4 86 4 90 10 C90 17.26 90 24.52 90 32 C105.84 32 121.68 32 138 32 C138 24.74 138 17.48 138 10 C143.17241379 2.24137931 143.17241379 2.24137931 148 0 C153.5997712 -0.75381535 158.33499991 -0.77303575 163.5 1.625 C167.06513686 5.01188002 169.69639119 7.58455122 170.3203125 12.54833984 C170.39313609 15.50022395 170.3490024 18.42396697 170.25 21.375 C170.23195313 22.39722656 170.21390625 23.41945313 170.1953125 24.47265625 C170.14839491 26.98274749 170.08276729 29.49087764 170 32 C170.72477539 31.97905273 171.44955078 31.95810547 172.19628906 31.93652344 C175.54737928 31.85229304 178.89824571 31.80100496 182.25 31.75 C183.38953125 31.71648438 184.5290625 31.68296875 185.703125 31.6484375 C200.31052541 31.48244431 211.13453333 36.46357688 221.75 46.3125 C232.13267261 57.28287106 234.45615879 69.38122746 234.38768005 84.0295105 C234.39185947 85.43202519 234.39734031 86.83453649 234.40399987 88.23704159 C234.41839365 92.06788402 234.41422888 95.8985102 234.40683305 99.72936416 C234.40208857 103.86989952 234.41462254 108.01038895 234.42485046 112.15090942 C234.44201887 120.25361765 234.44288253 128.35624825 234.43763756 136.45896994 C234.43359091 143.04711878 234.43504529 149.63524473 234.44038582 156.22339249 C234.44113424 157.16219573 234.44188266 158.10099898 234.44265376 159.06825081 C234.44418529 160.9756267 234.44572364 162.88300259 234.44726873 164.79037847 C234.46098673 182.66475098 234.45556104 200.5390797 234.44408352 218.41345121 C234.43415228 234.75213114 234.44709118 251.0906978 234.47101771 267.42936026 C234.49542265 284.22173084 234.50501312 301.0140487 234.49836498 317.80643666 C234.49487582 327.22775067 234.49708485 336.6489776 234.51461601 346.07027817 C234.52935545 354.09051735 234.52995071 362.11060813 234.5125451 370.13084446 C234.50404698 374.21948153 234.50185629 378.30785366 234.51719666 382.39647675 C234.53108948 386.14583545 234.52622235 389.8947034 234.50695742 393.64403404 C234.50144847 395.62895906 234.51543052 397.61390935 234.53031152 399.59878623 C234.41085443 414.23020496 229.58165771 425.08577813 219.6875 435.75 C210.02102723 444.89862601 198.70316463 448.47392309 185.61502075 448.38768005 C184.61855652 448.39306559 183.62209228 448.39845113 182.59543216 448.40399987 C179.2824057 448.41821826 175.96978225 448.41119076 172.65673828 448.40405273 C170.27081991 448.4097595 167.88490428 448.41672495 165.49899292 448.42485046 C159.70636328 448.44090568 153.91385835 448.44288928 148.12121119 448.43763756 C143.40948969 448.43358477 138.69780015 448.43505254 133.98608017 448.44038582 C133.3137116 448.44113424 132.64134303 448.44188266 131.94859966 448.44265376 C130.58237577 448.44418535 129.21615188 448.4457237 127.84992801 448.44726873 C115.05732138 448.46097514 102.26477602 448.45556929 89.47217081 448.44408352 C77.78937255 448.43415407 66.10673274 448.44709008 54.42395891 448.47101771 C42.40475604 448.49544739 30.38562684 448.50500704 18.36639965 448.49836498 C11.6278573 448.49488121 4.88943671 448.49704886 -1.84908676 448.51461601 C-8.18739219 448.53011504 -14.52539579 448.52609636 -20.86368942 448.50731087 C-23.18396447 448.50363318 -25.50426203 448.50670939 -27.8245163 448.51719666 C-46.48192967 448.59505902 -59.53810142 446.87315645 -73.75 433.6875 C-84.13267261 422.71712894 -86.45615879 410.61877254 -86.38768005 395.9704895 C-86.39185947 394.56797481 -86.39734031 393.16546351 -86.40399987 391.76295841 C-86.41839365 387.93211598 -86.41422888 384.1014898 -86.40683305 380.27063584 C-86.40208857 376.13010048 -86.41462254 371.98961105 -86.42485046 367.84909058 C-86.44201887 359.74638235 -86.44288253 351.64375175 -86.43763756 343.54103006 C-86.43359091 336.95288122 -86.43504529 330.36475527 -86.44038582 323.77660751 C-86.44113424 322.83780427 -86.44188266 321.89900102 -86.44265376 320.93174919 C-86.44418529 319.0243733 -86.44572364 317.11699741 -86.44726873 315.20962153 C-86.46098673 297.33524902 -86.45556104 279.4609203 -86.44408352 261.58654879 C-86.43415228 245.24786886 -86.44709118 228.9093022 -86.47101771 212.57063974 C-86.49542265 195.77826916 -86.50501312 178.9859513 -86.49836498 162.19356334 C-86.49487582 152.77224933 -86.49708485 143.3510224 -86.51461601 133.92972183 C-86.52935545 125.90948265 -86.52995071 117.88939187 -86.5125451 109.86915554 C-86.50404698 105.78051847 -86.50185629 101.69214634 -86.51719666 97.60352325 C-86.53108948 93.85416455 -86.52622235 90.1052966 -86.50695742 86.35596596 C-86.50144847 84.37104094 -86.51543052 82.38609065 -86.53031152 80.40121377 C-86.41085443 65.76979504 -81.58165771 54.91422187 -71.6875 44.25 C-60.81287863 33.95794763 -48.9214245 31.49627338 -34.375 31.8125 C-33.18003906 31.82603516 -31.98507813 31.83957031 -30.75390625 31.85351562 C-27.835452 31.88853708 -24.91797652 31.93765007 -22 32 C-22.02094727 31.36497559 -22.04189453 30.72995117 -22.06347656 30.07568359 C-22.14704581 27.17561924 -22.19878774 24.27580884 -22.25 21.375 C-22.28351563 20.37597656 -22.31703125 19.37695312 -22.3515625 18.34765625 C-22.43315123 12.18770715 -22.1132688 8.68372214 -18 4 C-12.72867143 -1.00776214 -6.89190982 -0.92775709 0 0 Z M-49.9375 69.75 C-54.63642021 77.15435912 -54.28717734 84.39136136 -54.26069641 92.92965698 C-54.26452196 94.23602462 -54.26834751 95.54239226 -54.27228898 96.88834679 C-54.28255889 100.5036898 -54.28038974 104.11893353 -54.27610838 107.73428464 C-54.27363933 111.63758488 -54.28265757 115.54086133 -54.29014587 119.44415283 C-54.30288995 127.08704176 -54.30468692 134.72989554 -54.30234561 142.3727933 C-54.30056195 148.58584491 -54.30231313 154.79888586 -54.30657005 161.01193619 C-54.30716524 161.89650485 -54.30776043 162.78107351 -54.30837366 163.69244728 C-54.30958542 165.48950496 -54.31079955 167.28656265 -54.31201603 169.08362032 C-54.32289047 185.93351387 -54.32072955 202.7833874 -54.31463119 219.63328208 C-54.30946226 235.04298128 -54.32071699 250.45261726 -54.33972941 265.86230396 C-54.35910843 281.69065871 -54.36736368 297.51898355 -54.36360615 313.34735024 C-54.36169419 322.23148499 -54.36418121 331.11556594 -54.37832069 339.99969101 C-54.39023629 347.56296031 -54.39163739 355.12614268 -54.37953053 362.68941317 C-54.37364306 366.54674086 -54.37253868 370.40390957 -54.38453293 374.26122665 C-54.39739519 378.44640225 -54.38692417 382.63119971 -54.3742218 386.81637573 C-54.38159609 388.03048878 -54.38897037 389.24460182 -54.39656812 390.49550617 C-54.35233076 397.42150762 -54.28094876 404.93114191 -49.72509462 410.58106983 C-43.72683574 416.09679691 -36.39305666 416.29503587 -28.71487427 416.26069641 C-27.80052766 416.26452196 -26.88618105 416.26834751 -25.94412696 416.27228898 C-22.8912404 416.28257827 -19.83854334 416.27863455 -16.78564453 416.2746582 C-14.59234443 416.27900693 -12.39904584 416.28419062 -10.20574951 416.29014587 C-4.25531914 416.30352992 1.69504768 416.30411518 7.64549017 416.30158257 C12.61565478 416.30051244 17.58580655 416.30539734 22.5559684 416.310188 C34.95320876 416.32191524 47.35041781 416.32105928 59.74766006 416.31463119 C70.50147115 416.30946326 81.25519162 416.32071565 92.00898479 416.33972941 C103.06417052 416.35912545 114.11931133 416.36706953 125.17451394 416.36360615 C131.37587467 416.36179403 137.57715242 416.36442257 143.7784996 416.37832069 C149.6111148 416.39090344 155.44354875 416.38895053 161.27616119 416.37590981 C163.41386349 416.37354545 165.55157856 416.37627363 167.6892662 416.38453293 C170.61335582 416.39501388 173.53683882 416.38688868 176.46090698 416.3742218 C177.30148899 416.38159609 178.142071 416.38897037 179.00812519 416.39656812 C185.07453342 416.34149977 191.69851266 415.63841749 196.59530628 411.72509462 C202.99632445 404.69026255 202.28829385 395.96863753 202.26069641 387.07034302 C202.26452196 385.76397538 202.26834751 384.45760774 202.27228898 383.11165321 C202.28255889 379.4963102 202.28038974 375.88106647 202.27610838 372.26571536 C202.27363933 368.36241512 202.28265757 364.45913867 202.29014587 360.55584717 C202.30288995 352.91295824 202.30468692 345.27010446 202.30234561 337.6272067 C202.30056195 331.41415509 202.30231313 325.20111414 202.30657005 318.98806381 C202.30746284 317.66121082 202.30746284 317.66121082 202.30837366 316.30755272 C202.30958542 314.51049504 202.31079955 312.71343735 202.31201603 310.91637968 C202.32289047 294.06648613 202.32072955 277.2166126 202.31463119 260.36671792 C202.30946226 244.95701872 202.32071699 229.54738274 202.33972941 214.13769604 C202.35910843 198.30934129 202.36736368 182.48101645 202.36360615 166.65264976 C202.36169419 157.76851501 202.36418121 148.88443406 202.37832069 140.00030899 C202.39023629 132.43703969 202.39163739 124.87385732 202.37953053 117.31058683 C202.37364306 113.45325914 202.37253868 109.59609043 202.38453293 105.73877335 C202.39739519 101.55359775 202.38692417 97.36880029 202.3742218 93.18362427 C202.38159609 91.96951122 202.38897037 90.75539818 202.39656812 89.50449383 C202.35233076 82.57849238 202.28094876 75.06885809 197.72509462 69.41893017 C191.94918012 64.10766091 184.98020621 63.69854953 177.5625 63.875 C176.46518555 63.88853516 176.46518555 63.88853516 175.34570312 63.90234375 C173.56365702 63.92563847 171.78178241 63.9614981 170 64 C169.98598145 64.95253662 169.98598145 64.95253662 169.97167969 65.92431641 C169.91771267 68.825308 169.83411873 71.72473244 169.75 74.625 C169.73582031 75.62402344 169.72164062 76.62304688 169.70703125 77.65234375 C169.51234004 83.5320184 169.14032476 87.47419673 165 92 C159.77740143 96.05630398 154.34659858 95.77397544 148 95 C142.93805921 92.60223857 141.97785351 90.96308918 139 86 C138.67 78.74 138.34 71.48 138 64 C122.16 64 106.32 64 90 64 C89.67 71.26 89.34 78.52 89 86 C84.24385102 93.13422347 84.24385102 93.13422347 80 95 C74.45191396 95.82885269 69.52859117 95.7240695 64.4375 93.3125 C55.35043028 84.69143386 58.65996003 78.51912073 58 64 C42.16 64 26.32 64 10 64 C9.67 71.26 9.34 78.52 9 86 C4.24385102 93.13422347 4.24385102 93.13422347 0 95 C-5.54808604 95.82885269 -10.47140883 95.7240695 -15.5625 93.3125 C-20.6670698 88.46970301 -21.37081672 84.58042915 -21.61914062 77.74023438 C-21.65297852 76.22913086 -21.65297852 76.22913086 -21.6875 74.6875 C-21.72166016 73.66076172 -21.75582031 72.63402344 -21.79101562 71.57617188 C-21.87323409 69.05089037 -21.94246936 66.5259446 -22 64 C-37.17229112 62.89415281 -37.17229112 62.89415281 -49.9375 69.75 Z " fill="#FFAF25" transform="translate(182,32)"/>
<path d="M0 0 C1.05489624 -0.00935994 1.05489624 -0.00935994 2.13110352 -0.01890898 C4.47576936 -0.03479977 6.81938988 -0.02225106 9.1640625 -0.00964355 C10.84977828 -0.01506645 12.53548932 -0.02219005 14.22119141 -0.03088379 C18.79145963 -0.04910026 23.36136618 -0.04205658 27.93164062 -0.02936745 C32.71745774 -0.01923109 37.50324416 -0.02863489 42.2890625 -0.03491211 C50.32557731 -0.04218666 58.36194503 -0.03260586 66.3984375 -0.0135498 C75.68597197 0.00821857 84.97315519 0.00116706 94.26068115 -0.02085543 C102.23877974 -0.0390149 110.21677267 -0.04156507 118.19488525 -0.03110075 C122.95810706 -0.02486883 127.72116384 -0.02402189 132.484375 -0.0372467 C136.96279317 -0.04881255 141.44075904 -0.04076615 145.91912842 -0.01766968 C147.56141408 -0.0123865 149.20373788 -0.01388971 150.8460083 -0.02272034 C153.09055875 -0.03367555 155.33366615 -0.01991476 157.578125 0 C158.83318848 0.0015081 160.08825195 0.0030162 161.38134766 0.00457001 C166.5664884 0.77048389 169.61909387 3.27638864 173.1640625 7.00793457 C175.56209825 12.17293466 175.54287785 16.90816337 174.7890625 22.50793457 C172.47916652 27.48309515 169.50950231 29.82698187 164.7890625 32.50793457 C161.38134766 33.01129913 161.38134766 33.01129913 157.578125 33.01586914 C156.52322876 33.02522908 156.52322876 33.02522908 155.44702148 33.03477812 C153.10235564 33.05066891 150.75873512 33.0381202 148.4140625 33.0255127 C146.72834672 33.03093559 145.04263568 33.03805919 143.35693359 33.04675293 C138.78666537 33.0649694 134.21675882 33.05792572 129.64648438 33.04523659 C124.86066726 33.03510023 120.07488084 33.04450404 115.2890625 33.05078125 C107.25254769 33.0580558 99.21617997 33.048475 91.1796875 33.02941895 C81.89215303 33.00765057 72.60496981 33.01470208 63.31744385 33.03672457 C55.33934526 33.05488404 47.36135233 33.05743421 39.38323975 33.04696989 C34.62001794 33.04073798 29.85696116 33.03989103 25.09375 33.05311584 C20.61533183 33.06468169 16.13736596 33.05663529 11.65899658 33.03353882 C10.01671092 33.02825564 8.37438712 33.02975885 6.7321167 33.03858948 C4.48756625 33.04954469 2.24445885 33.0357839 0 33.01586914 C-1.25506348 33.01436104 -2.51012695 33.01285294 -3.80322266 33.01129913 C-8.9883634 32.24538525 -12.04096887 29.7394805 -15.5859375 26.00793457 C-17.98397325 20.84293448 -17.96475285 16.10770577 -17.2109375 10.50793457 C-13.71687306 2.98225731 -8.11362412 0.00974945 0 0 Z " fill="#FFA422" transform="translate(177.2109375,319.4920654296875)"/>
<path d="M0 0 C1.05489624 -0.00935994 1.05489624 -0.00935994 2.13110352 -0.01890898 C4.47576936 -0.03479977 6.81938988 -0.02225106 9.1640625 -0.00964355 C10.84977828 -0.01506645 12.53548932 -0.02219005 14.22119141 -0.03088379 C18.79145963 -0.04910026 23.36136618 -0.04205658 27.93164062 -0.02936745 C32.71745774 -0.01923109 37.50324416 -0.02863489 42.2890625 -0.03491211 C50.32557731 -0.04218666 58.36194503 -0.03260586 66.3984375 -0.0135498 C75.68597197 0.00821857 84.97315519 0.00116706 94.26068115 -0.02085543 C102.23877974 -0.0390149 110.21677267 -0.04156507 118.19488525 -0.03110075 C122.95810706 -0.02486883 127.72116384 -0.02402189 132.484375 -0.0372467 C136.96279317 -0.04881255 141.44075904 -0.04076615 145.91912842 -0.01766968 C147.56141408 -0.0123865 149.20373788 -0.01388971 150.8460083 -0.02272034 C153.09055875 -0.03367555 155.33366615 -0.01991476 157.578125 0 C158.83318848 0.0015081 160.08825195 0.0030162 161.38134766 0.00457001 C166.5664884 0.77048389 169.61909387 3.27638864 173.1640625 7.00793457 C175.56209825 12.17293466 175.54287785 16.90816337 174.7890625 22.50793457 C172.47916652 27.48309515 169.50950231 29.82698187 164.7890625 32.50793457 C161.38134766 33.01129913 161.38134766 33.01129913 157.578125 33.01586914 C156.52322876 33.02522908 156.52322876 33.02522908 155.44702148 33.03477812 C153.10235564 33.05066891 150.75873512 33.0381202 148.4140625 33.0255127 C146.72834672 33.03093559 145.04263568 33.03805919 143.35693359 33.04675293 C138.78666537 33.0649694 134.21675882 33.05792572 129.64648438 33.04523659 C124.86066726 33.03510023 120.07488084 33.04450404 115.2890625 33.05078125 C107.25254769 33.0580558 99.21617997 33.048475 91.1796875 33.02941895 C81.89215303 33.00765057 72.60496981 33.01470208 63.31744385 33.03672457 C55.33934526 33.05488404 47.36135233 33.05743421 39.38323975 33.04696989 C34.62001794 33.04073798 29.85696116 33.03989103 25.09375 33.05311584 C20.61533183 33.06468169 16.13736596 33.05663529 11.65899658 33.03353882 C10.01671092 33.02825564 8.37438712 33.02975885 6.7321167 33.03858948 C4.48756625 33.04954469 2.24445885 33.0357839 0 33.01586914 C-1.25506348 33.01436104 -2.51012695 33.01285294 -3.80322266 33.01129913 C-8.9883634 32.24538525 -12.04096887 29.7394805 -15.5859375 26.00793457 C-17.98397325 20.84293448 -17.96475285 16.10770577 -17.2109375 10.50793457 C-13.71687306 2.98225731 -8.11362412 0.00974945 0 0 Z " fill="#FFAC24" transform="translate(177.2109375,255.4920654296875)"/>
<path d="M0 0 C1.05489624 -0.00935994 1.05489624 -0.00935994 2.13110352 -0.01890898 C4.47576936 -0.03479977 6.81938988 -0.02225106 9.1640625 -0.00964355 C10.84977828 -0.01506645 12.53548932 -0.02219005 14.22119141 -0.03088379 C18.79145963 -0.04910026 23.36136618 -0.04205658 27.93164062 -0.02936745 C32.71745774 -0.01923109 37.50324416 -0.02863489 42.2890625 -0.03491211 C50.32557731 -0.04218666 58.36194503 -0.03260586 66.3984375 -0.0135498 C75.68597197 0.00821857 84.97315519 0.00116706 94.26068115 -0.02085543 C102.23877974 -0.0390149 110.21677267 -0.04156507 118.19488525 -0.03110075 C122.95810706 -0.02486883 127.72116384 -0.02402189 132.484375 -0.0372467 C136.96279317 -0.04881255 141.44075904 -0.04076615 145.91912842 -0.01766968 C147.56141408 -0.0123865 149.20373788 -0.01388971 150.8460083 -0.02272034 C153.09055875 -0.03367555 155.33366615 -0.01991476 157.578125 0 C158.83318848 0.0015081 160.08825195 0.0030162 161.38134766 0.00457001 C166.5664884 0.77048389 169.61909387 3.27638864 173.1640625 7.00793457 C175.56209825 12.17293466 175.54287785 16.90816337 174.7890625 22.50793457 C172.47916652 27.48309515 169.50950231 29.82698187 164.7890625 32.50793457 C161.38134766 33.01129913 161.38134766 33.01129913 157.578125 33.01586914 C156.52322876 33.02522908 156.52322876 33.02522908 155.44702148 33.03477812 C153.10235564 33.05066891 150.75873512 33.0381202 148.4140625 33.0255127 C146.72834672 33.03093559 145.04263568 33.03805919 143.35693359 33.04675293 C138.78666537 33.0649694 134.21675882 33.05792572 129.64648438 33.04523659 C124.86066726 33.03510023 120.07488084 33.04450404 115.2890625 33.05078125 C107.25254769 33.0580558 99.21617997 33.048475 91.1796875 33.02941895 C81.89215303 33.00765057 72.60496981 33.01470208 63.31744385 33.03672457 C55.33934526 33.05488404 47.36135233 33.05743421 39.38323975 33.04696989 C34.62001794 33.04073798 29.85696116 33.03989103 25.09375 33.05311584 C20.61533183 33.06468169 16.13736596 33.05663529 11.65899658 33.03353882 C10.01671092 33.02825564 8.37438712 33.02975885 6.7321167 33.03858948 C4.48756625 33.04954469 2.24445885 33.0357839 0 33.01586914 C-1.25506348 33.01436104 -2.51012695 33.01285294 -3.80322266 33.01129913 C-8.9883634 32.24538525 -12.04096887 29.7394805 -15.5859375 26.00793457 C-17.98397325 20.84293448 -17.96475285 16.10770577 -17.2109375 10.50793457 C-13.71687306 2.98225731 -8.11362412 0.00974945 0 0 Z " fill="#FFB427" transform="translate(177.2109375,191.4920654296875)"/>
</svg>
